<svg id="Calque_1" data-name="Calque 1" xmlns="http://www.w3.org/2000/svg" viewBox="0 0 60 60"><defs><style>.cls-1{fill:#3b5998;}.cls-2{fill:#fff;}.cls-3{fill-opacity:0.08;}</style></defs><title>facebook</title><g id="Facebook"><path class="cls-1" d="M0,30A30,30,0,1,1,30,60,30,30,0,0,1,0,30Z"/><path id="Path" class="cls-2" d="M32.51,46.32V30H37l0.6-5.62h-5.1V21.56c0-1.47.14-2.25,2.24-2.25h2.81V13.68h-4.5c-5.4,0-7.31,2.73-7.31,7.32v3.38H22.4V30h3.37V46.32h6.74Z"/><path id="reflec" class="cls-3" d="M60,30A30,30,0,0,1,13.39,55L47.76,5.82A30,30,0,0,1,60,30Z"/></g></svg>