<svg id="Calque_1" data-name="Calque 1" xmlns="http://www.w3.org/2000/svg" viewBox="0 0 60 60"><defs><style>.cls-1{fill:#517fa4;}.cls-2{fill:#fff;}.cls-3{fill-opacity:0.08;}</style></defs><title>instagram</title><g id="Instagram"><path class="cls-1" d="M0,30A30,30,0,1,1,30,60,30,30,0,0,1,0,30Z"/><path id="Path" class="cls-2" d="M18,27.2Q18,34,18,40.74A1.23,1.23,0,0,0,19.26,42H40.74A1.23,1.23,0,0,0,42,40.74Q42,34,42,27.21V27.12H39a9.54,9.54,0,0,1,.38,4,9.33,9.33,0,0,1-1.32,3.8,9.48,9.48,0,0,1-12.73,3.35,9.27,9.27,0,0,1-3.68-3.71,9.47,9.47,0,0,1-.74-7.45H18V27.2Zm24.63,18-0.47.08H17.79l-0.2,0a3.3,3.3,0,0,1-2.77-2.52c0-.15-0.06-0.31-0.08-0.47V17.76c0-.06,0-0.11,0-0.17a3.29,3.29,0,0,1,2.54-2.77l0.44-.08H42.24l0.17,0a3.3,3.3,0,0,1,2.78,2.62c0,0.13,0,.27.07,0.4V42.21c0,0.14,0,.27-0.07.41A3.3,3.3,0,0,1,42.68,45.17ZM23.82,29.91A6.18,6.18,0,1,0,30,23.82,6.19,6.19,0,0,0,23.82,29.91Zm17-7.34A1.22,1.22,0,0,0,42,21.35q0-1.44,0-2.89a1.23,1.23,0,0,0-1.24-1.24H37.83a1.23,1.23,0,0,0-1.24,1.24c0,1,0,1.91,0,2.86a1.39,1.39,0,0,0,.07.43,1.23,1.23,0,0,0,1.21.82h2.9Z"/><path id="reflec" class="cls-3" d="M60,30A30,30,0,0,1,13.39,55L47.76,5.82A30,30,0,0,1,60,30Z"/></g></svg>