<svg id="Calque_1" data-name="Calque 1" xmlns="http://www.w3.org/2000/svg" viewBox="0 0 60 60"><defs><style>.cls-1{fill:#cb2027;}.cls-2{fill:#fff;}.cls-3{fill-opacity:0.08;}</style></defs><title>pinterest</title><g id="Pinterest"><path class="cls-1" d="M0,30A30,30,0,1,1,30,60,30,30,0,0,1,0,30Z"/><path id="Path" class="cls-2" d="M17.23,25.66c0,3.3,1.25,6.24,3.93,7.34a0.66,0.66,0,0,0,1-.48c0.09-.34.3-1.19,0.39-1.54a0.93,0.93,0,0,0-.28-1.07A5.54,5.54,0,0,1,21,26.13a9.09,9.09,0,0,1,9.45-9.2c5.16,0,8,3.15,8,7.36,0,5.54-2.45,10.21-6.09,10.21a3,3,0,0,1-3-3.7C29.88,28.37,31,25.75,31,24c0-1.57-.84-2.88-2.59-2.88-2.05,0-3.7,2.12-3.7,5a7.39,7.39,0,0,0,.61,3L22.85,39.58a21.55,21.55,0,0,0-.06,7.3,0.26,0.26,0,0,0,.46.11,20.49,20.49,0,0,0,3.47-6.28c0.24-.85,1.35-5.28,1.35-5.28a5.5,5.5,0,0,0,4.69,2.39c6.17,0,10.36-5.63,10.36-13.16,0-5.7-4.82-11-12.16-11C21.83,13.66,17.23,20.2,17.23,25.66Z"/><path id="reflec" class="cls-3" d="M60,30A30,30,0,0,1,13.39,55L47.76,5.82A30,30,0,0,1,60,30Z"/></g></svg>