<svg id="Calque_1" data-name="Calque 1" xmlns="http://www.w3.org/2000/svg" viewBox="0 0 60 60"><defs><style>.cls-1{fill:#e18f00;}.cls-2{fill:#fff;}.cls-3{fill-opacity:0.08;}</style></defs><title>rss</title><g id="RSS"><path class="cls-1" d="M0,30A30,30,0,1,1,30,60,30,30,0,0,1,0,30Z"/><path id="Path" class="cls-2" d="M37.25,42.27H32.14A12.42,12.42,0,0,0,19.73,29.83V24.74A17.54,17.54,0,0,1,37.25,42.27ZM26.8,38.76a3.54,3.54,0,1,1-3.54-3.53A3.52,3.52,0,0,1,26.8,38.76Zm19.46,3.51h-5.1A21.47,21.47,0,0,0,19.73,20.81V15.72A26.57,26.57,0,0,1,46.27,42.27Z"/><path id="reflec" class="cls-3" d="M60,30A30,30,0,0,1,13.39,55L47.76,5.82A30,30,0,0,1,60,30Z"/></g></svg>