<svg id="Calque_1" data-name="Calque 1" xmlns="http://www.w3.org/2000/svg" viewBox="0 0 60 60"><defs><style>.cls-1{fill:#4099ff;}.cls-2{fill:#fff;}.cls-3{fill-opacity:0.08;}</style></defs><title>twitter</title><g id="Twitter"><path class="cls-1" d="M0,30A30,30,0,1,1,30,60,30,30,0,0,1,0,30Z"/><path id="Path" class="cls-2" d="M29.26,23.89l0.06,1-1-.13a17,17,0,0,1-10-4.91l-1.38-1.38-0.36,1a6.12,6.12,0,0,0,1.3,6.27c0.84,0.89.65,1-.8,0.49a2.47,2.47,0,0,0-1-.23,7.6,7.6,0,0,0,.75,2.84A6.77,6.77,0,0,0,19.7,31.6l1,0.49-1.22,0c-1.17,0-1.22,0-1.09.47A6.34,6.34,0,0,0,22.34,36l1.3,0.44-1.13.68a11.78,11.78,0,0,1-5.62,1.57,6.2,6.2,0,0,0-1.72.17,15.93,15.93,0,0,0,4,1.86A17.68,17.68,0,0,0,33,39.2a18.42,18.42,0,0,0,7-8.22,21.88,21.88,0,0,0,1.42-6.36c0-1,.06-1.1,1.24-2.27a13.83,13.83,0,0,0,1.47-1.63c0.21-.4.19-0.4-0.88,0-1.78.64-2,.55-1.15-0.4A6.16,6.16,0,0,0,43.46,18a1.13,1.13,0,0,0-.67.23,11.68,11.68,0,0,1-1.84.72l-1.13.36-1-.7A8.52,8.52,0,0,0,37,17.7a7.15,7.15,0,0,0-3.67.08A6.07,6.07,0,0,0,29.26,23.89Z"/><path id="reflec" class="cls-3" d="M60,30A30,30,0,0,1,13.39,55L47.76,5.82A30,30,0,0,1,60,30Z"/></g></svg>