<svg id="Calque_1" data-name="Calque 1" xmlns="http://www.w3.org/2000/svg" viewBox="0 0 60 60"><defs><style>.cls-1{fill:#cd332d;}.cls-2{fill:#fff;}.cls-3{fill-opacity:0.08;}</style></defs><title>youtube</title><g id="Youtube"><path id="YouTube-2" data-name="YouTube" class="cls-1" d="M0,30A30,30,0,1,1,30,60,30,30,0,0,1,0,30Z"/><path id="Path" class="cls-2" d="M21.92,44.88V34.6h2V32.85h-6V34.6h2V44.88h2ZM43.51,30.43C44.95,31.86,45,38.94,45,39s0,7.12-1.45,8.56S30,49,30,49s-12.08,0-13.52-1.46S15,39,15,39s0-7.12,1.44-8.55S30,29,30,29,42.07,29,43.51,30.43ZM28,43.91v1H29.7V36H28v6.74a2.46,2.46,0,0,1-.54.47,1,1,0,0,1-.49.19,0.43,0.43,0,0,1-.36-0.14,0.76,0.76,0,0,1-.11-0.46V36H24.72v7.42A1.94,1.94,0,0,0,25,44.62a1.08,1.08,0,0,0,.91.4,2.09,2.09,0,0,0,1-.28A3.74,3.74,0,0,0,28,43.91ZM34.44,45a1.44,1.44,0,0,0,1.19-.5A2.23,2.23,0,0,0,36,43V38.12a2.67,2.67,0,0,0-.44-1.66,1.5,1.5,0,0,0-1.26-.57,1.7,1.7,0,0,0-.8.21,2.71,2.71,0,0,0-.75.62V32.85H31v12h1.76V44.2a2.27,2.27,0,0,0,.75.6A2.06,2.06,0,0,0,34.44,45Zm4.31-2.67V40.66h3.34V38.39a2.69,2.69,0,0,0-.64-1.93,2.43,2.43,0,0,0-1.84-.67,2.61,2.61,0,0,0-1.91.73,2.53,2.53,0,0,0-.74,1.88v4a2.86,2.86,0,0,0,.68,2,2.38,2.38,0,0,0,1.85.73,2.58,2.58,0,0,0,2-.69,2.88,2.88,0,0,0,.66-2.06V41.93h-1.8v0.4a1.92,1.92,0,0,1-.17,1,0.71,0.71,0,0,1-.61.23,0.65,0.65,0,0,1-.59-0.27A2,2,0,0,1,38.75,42.33Zm-4.7-4.79a1.08,1.08,0,0,1,.18.68v4.58a1,1,0,0,1-.15.61,0.56,0.56,0,0,1-.47.19,1,1,0,0,1-.42-0.1,1.47,1.47,0,0,1-.42-0.31V37.67a1.29,1.29,0,0,1,.36-0.27,0.83,0.83,0,0,1,.37-0.09A0.67,0.67,0,0,1,34.05,37.54Zm4.88,0a0.69,0.69,0,0,1,.6-0.24,0.66,0.66,0,0,1,.58.24,1.32,1.32,0,0,1,.18.8v0.9H38.75v-0.9A1.33,1.33,0,0,1,38.93,37.58Z"/><path id="Path-2" data-name="Path" class="cls-2" d="M19,12h2.23l1.44,5.3h0.14L24.2,12h2.25l-2.57,7.76v5.5H21.67V20Zm10.51,3.23a2.86,2.86,0,0,1,2,.71,2.37,2.37,0,0,1,.78,1.83v5.05a2.57,2.57,0,0,1-.76,2,3,3,0,0,1-2.11.71,2.88,2.88,0,0,1-2.06-.74,2.62,2.62,0,0,1-.77-2V17.71a2.25,2.25,0,0,1,.79-1.81A3.19,3.19,0,0,1,29.54,15.23Zm-0.09,8.58a0.89,0.89,0,0,0,.63-0.22A0.82,0.82,0,0,0,30.32,23V17.64a0.64,0.64,0,0,0-.24-0.52,1,1,0,0,0-.63-0.2,0.86,0.86,0,0,0-.59.2,0.66,0.66,0,0,0-.23.52V23a0.87,0.87,0,0,0,.21.62A0.78,0.78,0,0,0,29.45,23.81Zm8.11,1.45V24.17a4.14,4.14,0,0,1-1.13.91,2.42,2.42,0,0,1-1.14.31,1.23,1.23,0,0,1-1-.44,2.1,2.1,0,0,1-.34-1.31V15.48h2V23a0.81,0.81,0,0,0,.13.5,0.48,0.48,0,0,0,.4.16,1.13,1.13,0,0,0,.55-0.21,2.61,2.61,0,0,0,.6-0.53V15.48h2v9.78h-2Z"/><path id="reflec" class="cls-3" d="M60,30A30,30,0,0,1,13.39,55L47.76,5.82A30,30,0,0,1,60,30Z"/></g></svg>